<?xml version="1.0" standalone="no"?>
<!DOCTYPE svg PUBLIC "-//W3C//DTD SVG 1.1//EN" "http://www.w3.org/Graphics/SVG/1.1/DTD/svg11.dtd" >
<svg xmlns="http://www.w3.org/2000/svg">
<metadata>Generated by IcoMoon</metadata>
<defs>
<font id="icomoon" horiz-adv-x="1024">
<font-face units-per-em="1024" ascent="960" descent="-64" />
<missing-glyph horiz-adv-x="1024" />
<glyph unicode="&#x20;" d="" horiz-adv-x="512" />
<glyph unicode="&#xe600;" d="M511.928 51.976c-213.36 0-386.953 173.592-386.953 386.953s173.592 386.953 386.953 386.953 386.953-173.592 386.953-386.953-173.592-386.953-386.953-386.953zM511.928 717.522c-153.618 0-278.593-124.975-278.593-278.593s124.975-278.593 278.593-278.593 278.593 124.975 278.593 278.593-124.975 278.593-278.593 278.593zM515.829 376.442l-230.192 115.042 48.473 96.946 173.917-86.977 172.509 115.006 60.104-90.155z" />
<glyph unicode="&#xe601;" d="M882.988 738.327l-71.662 71.662-299.398-299.362-299.398 299.362-71.662-71.662 299.362-299.398-299.362-299.398 71.662-71.662 299.398 299.398 299.398-299.398 71.662 71.662-299.398 299.398z" />
<glyph unicode="&#xe602;" d="M919.794 472.123c-5.274 65.485-26.006 126.492-58.442 179.661l-58.659-1.625 19.721 55.408c-41.285 48.003-93.262 86.471-152.534 111.286l-46.884-36.084-16.615 56.347c-30.377 7.188-61.91 11.378-94.454 11.378-32.58 0-64.077-4.19-94.454-11.378l-16.579-56.347-46.92 36.084c-59.273-24.814-111.286-63.318-152.534-111.322l19.685-55.372-58.587 1.625c-32.472-53.169-53.241-114.139-58.514-179.661l48.473-33.194-48.473-33.23c5.274-65.485 26.006-126.492 58.514-179.697l58.587 1.625-19.685-55.336c41.249-48.003 93.262-86.507 152.534-111.286l46.884 36.084 16.579-56.347c30.377-7.188 61.873-11.378 94.454-11.378 32.544 0 64.077 4.19 94.49 11.378l16.579 56.347 46.884-36.084c59.273 24.814 111.249 63.246 152.534 111.249l-19.721 55.372 58.623-1.625c32.472 53.205 53.241 114.175 58.478 179.697l-48.473 33.194 48.509 33.23zM511.928 285.311c-84.81 0-153.582 68.772-153.582 153.582s68.772 153.582 153.582 153.582c84.846 0 153.582-68.772 153.582-153.582s-68.772-153.582-153.582-153.582z" />
<glyph unicode="&#xe603;" d="M511.928 131.765l307.164 511.964h-614.292z" />
<glyph unicode="&#xe604;" d="M204.764 438.965l511.964-307.164v614.292z" />
<glyph unicode="&#xe605;" d="M767.91 438.929l-511.964 307.164v-614.292z" />
<glyph unicode="&#xe606;" d="M511.928 746.093l-307.164-511.964h614.328z" />
<glyph unicode="&#xe607;" d="M511.928 94.706l-401.148 515.756 85.568 66.497 315.58-405.735 315.58 405.735 85.496-66.497z" />
<glyph unicode="&#xe608;" d="M895.774 643.585l-204.872 204.872h-588.538v-819.092h819.092v588.502l-25.681 25.717zM665.51 771.702v0l179.191-179.191h-179.191v179.191zM844.701 106.12h-665.546v665.546h414.079v-251.395h251.431v-414.151z" />
<glyph unicode="&#xe609;" d="M511.964 848.457l-102.436-102.364h-307.164v-716.728h793.519v819.092z" />
<glyph unicode="&#xe60a;" d="M720.954 658.755l-103.231-83.184h-382.618l-89.686-510.086h718.534l73.649 593.27zM617.723 575.571h-382.618l-89.686-510.086h718.534l31.93 257.138v336.132h-174.929zM592.222 647.811l103.267 83.184h200.393v117.462h-383.919l-102.436-102.364h-307.164v-508.135l72.095 409.853z" />
<glyph unicode="&#xe60b;" d="M179.155 438.929l515.756 401.112 66.533-85.532-405.771-315.58 405.771-315.58-66.533-85.496z" />
<glyph unicode="&#xe60c;" d="M735.871 511.205v96.368c0 132.488-100.811 240.884-223.944 240.884v0c-123.205 0-223.944-108.396-223.944-240.884v-96.368h-134.438v-481.84h716.692v481.84h-134.366zM382.763 607.573c0 76.61 57.936 138.917 129.165 138.917s129.129-62.307 129.129-138.917v-96.368h-258.294v96.368zM422.35 270.285c0 53.241 40.093 96.368 89.577 96.368s89.541-43.127 89.541-96.368-40.057-96.368-89.541-96.368c-49.484 0-89.577 43.163-89.577 96.368z" />
<glyph unicode="&#xe60d;" d="M153.546 493.109h716.692v-108.36h-716.692v108.36z" />
<glyph unicode="&#xe60e;" d="M102.364 749.091h819.128v-108.36h-819.128v108.36zM102.364 493.109h819.128v-108.36h-819.128v108.36zM102.364 237.127h819.128v-108.36h-819.128v108.36z" />
<glyph unicode="&#xe60f;" d="M849.252 750.644v-649.003h-674.612v649.003h674.612zM921.492 822.884h-819.092v-793.483h819.092v793.483zM230.373 669.302h281.555v-230.337h-281.555v230.337zM563.146 643.693h230.373v-51.182h-230.373v51.182zM563.146 515.72h230.373v-51.182h-230.373v51.182zM230.373 362.138h563.146v-51.182h-563.146v51.182zM230.373 234.093h563.146v-51.146h-563.146v51.146z" />
<glyph unicode="&#xe610;" d="M751.078 848.457l-553.755-553.755 170.378-170.414 553.791 553.755-170.414 170.414zM325.079 252.045l-42.585 42.658 468.584 468.548 42.622-42.622-468.62-468.584zM154.738 81.703h170.378l-170.378 170.378z" />
<glyph unicode="&#xe611;" d="M352.025 366.581l-266.89-266.926 87.591-87.591 266.89 266.854c154.304-107.565 280.688 17.915 280.688 17.915l65.63 65.63-350.436 350.436-65.63-65.63c0 0-125.445-126.384-17.843-280.688zM873.633 712.971l-131.477-131.477-87.627 87.663 131.44 131.368-87.591 87.627-131.44-131.404-43.777 43.777-43.813-43.777 350.472-350.436 43.777 43.813-43.813 43.813 131.44 131.44z" />
<glyph unicode="&#xe612;" d="M870.274 493.109h-304.166v304.166h-108.36v-304.166h-304.202v-108.36h304.166v-304.166h108.36v304.166h304.202z" />
<glyph unicode="&#xe613;" d="M511.928-21.817l409.528 403.135-273.031 0.036c0 0 0-12.786 0 159.939 0 358.49 273.031 307.164 273.031 307.164s-51.182 51.182-273.031 51.182c-290.151 0-273.067-358.346-273.067-358.346v-159.939h-272.994l409.564-403.171z" />
<glyph unicode="&#xe614;" d="M51.182 438.929l403.171-409.528v273.031c0 0-12.786 0 159.975 0 358.49 0 307.164-272.994 307.164-272.994s51.182 51.182 51.182 272.994c0 290.151-358.346 273.067-358.346 273.067h-159.975v272.994l-403.171-409.564z" />
<glyph unicode="&#xe615;" d="M972.674 438.929l-403.135 409.564v-273.031c0 0 12.786 0-159.975 0-358.49 0-307.164 273.031-307.164 273.031s-51.182-51.182-51.182-273.031c0-290.115 358.346-273.067 358.346-273.067h159.939v-273.031l403.171 409.564z" />
<glyph unicode="&#xe616;" d="M511.928 899.675l-409.564-403.171h273.031c0 0 0 12.786 0-159.975 0-358.49-273.031-307.164-273.031-307.164s51.182-51.182 273.031-51.182c290.115 0 273.067 358.346 273.067 358.346v159.975h273.031l-409.564 403.171z" />
<glyph unicode="&#xe617;" d="M638.384 793.194v-118.798c86.616-46.486 141.626-135.811 141.626-235.502 0-147.803-120.243-268.046-268.046-268.046s-268.082 120.243-268.082 268.046c0 99.691 54.975 189.016 141.662 235.502v118.798c-150.042-53.385-250.058-193.928-250.058-354.264 0-207.581 168.861-376.406 376.442-376.406s376.406 168.861 376.406 376.406c0.036 160.3-99.98 300.879-249.95 354.264zM457.748 866.553h108.36v-445.684h-108.36v445.684z" />
<glyph unicode="&#xe618;" d="M844.701 438.929l-515.756-401.148-66.497 85.568 405.735 315.58-405.735 315.58 66.497 85.496z" />
<glyph unicode="&#xe619;" d="M511.928 797.275l-409.564-563.11h819.128zM102.364 182.947h819.092v-102.4h-819.092v102.4z" />
<glyph unicode="&#xe61a;" d="M511.892 746.093l401.112-515.756-85.532-66.533-315.58 405.771-315.58-405.771-85.532 66.533z" />
<glyph unicode="&#xe90d;" d="M959.884 832c0.040-0.034 0.082-0.076 0.116-0.116v-767.77c-0.034-0.040-0.076-0.082-0.116-0.116h-895.77c-0.040 0.034-0.082 0.076-0.114 0.116v767.772c0.034 0.040 0.076 0.082 0.114 0.114h895.77zM960 896h-896c-35.2 0-64-28.8-64-64v-768c0-35.2 28.8-64 64-64h896c35.2 0 64 28.8 64 64v768c0 35.2-28.8 64-64 64v0zM832 672c0-53.020-42.98-96-96-96s-96 42.98-96 96 42.98 96 96 96 96-42.98 96-96zM896 128h-768v128l224 384 256-320h64l224 192z" />
<glyph unicode="&#xe9b9;" d="M384 128h640v-128h-640zM384 512h640v-128h-640zM384 896h640v-128h-640zM192 960v-256h-64v192h-64v64zM128 434v-50h128v-64h-192v146l128 60v50h-128v64h192v-146zM256 256v-320h-192v64h128v64h-128v64h128v64h-128v64z" />
<glyph unicode="&#xe9bb;" d="M384 896h640v-128h-640v128zM384 512h640v-128h-640v128zM384 128h640v-128h-640v128zM0 832c0 70.692 57.308 128 128 128s128-57.308 128-128c0-70.692-57.308-128-128-128s-128 57.308-128 128zM0 448c0 70.692 57.308 128 128 128s128-57.308 128-128c0-70.692-57.308-128-128-128s-128 57.308-128 128zM0 64c0 70.692 57.308 128 128 128s128-57.308 128-128c0-70.692-57.308-128-128-128s-128 57.308-128 128z" />
<glyph unicode="&#xea5c;" d="M799.596 943.792c-90.526 0-148.62 16.208-241.848 16.208-301.284 0-441.792-171.584-441.792-345.872 0-102.678 48.64-136.458 144.564-136.458-6.758 14.864-18.914 31.080-18.914 104.034 0 204.010 77.006 263.458 175.636 267.51 0 0-80.918-793.374-315.778-888.542v-24.672h316.594l108.026 512h197.844l44.072 128h-214.908l51.944 246.19c59.446-12.156 117.542-24.316 167.532-24.316 62.148 0 118.894 18.914 149.968 162.126-37.826-12.16-78.362-16.208-122.94-16.208z" />
<glyph unicode="&#xea62;" d="M707.88 475.348c37.498 44.542 60.12 102.008 60.12 164.652 0 141.16-114.842 256-256 256h-320v-896h384c141.158 0 256 114.842 256 256 0 92.956-49.798 174.496-124.12 219.348zM384 768h101.5c55.968 0 101.5-57.42 101.5-128s-45.532-128-101.5-128h-101.5v256zM543 128h-159v256h159c58.45 0 106-57.42 106-128s-47.55-128-106-128z" />
<glyph unicode="&#xea63;" d="M704 896h128v-416c0-159.058-143.268-288-320-288-176.73 0-320 128.942-320 288v416h128v-416c0-40.166 18.238-78.704 51.354-108.506 36.896-33.204 86.846-51.494 140.646-51.494s103.75 18.29 140.646 51.494c33.116 29.802 51.354 68.34 51.354 108.506v416zM192 128h640v-128h-640z" />
<glyph unicode="&#xea6d;" d="M322.018 128l57.6 192h264.764l57.6-192h113.632l-191.996 640h-223.236l-192-640h113.636zM475.618 640h72.764l57.6-192h-187.964l57.6 192z" />
<glyph unicode="&#xea77;" d="M0 896h1024v-128h-1024zM0 704h640v-128h-640zM0 320h640v-128h-640zM0 512h1024v-128h-1024zM0 128h1024v-128h-1024z" />
<glyph unicode="&#xea78;" d="M0 896h1024v-128h-1024zM192 704h640v-128h-640zM192 320h640v-128h-640zM0 512h1024v-128h-1024zM0 128h1024v-128h-1024z" />
<glyph unicode="&#xea80;" d="M832 224l96-96 320 320-320 320-96-96 224-224zM448 672l-96 96-320-320 320-320 96 96-224 224zM701.298 809.481l69.468-18.944-191.987-704.026-69.468 18.944 191.987 704.026z" horiz-adv-x="1280" />
</font>
</defs>
</svg>
